<svg width="855" height="1035" viewBox="0 0 855 1035" fill="none" xmlns="http://www.w3.org/2000/svg">
<path fill-rule="evenodd" clip-rule="evenodd" d="M789.066 465.164C789.066 465.164 870.067 330.058 796.693 242.041C677.034 98.502 511.763 190.458 511.763 190.458C527.814 172.332 547.89 155.615 585.449 145.014C585.449 145.014 530.867 46.4484 399.998 65.1894C214.796 91.7023 172.79 269.061 172.79 269.061C171.492 242.2 172.623 214.533 181.387 184.319C181.387 184.319 110.533 192.476 68.6914 241.613C-17.9417 343.356 81.4632 457.769 81.4632 457.769C81.4632 457.769 -54.0434 377.012 24.4778 232.776C77.0812 136.146 186.749 149.7 186.749 149.7C186.749 149.7 251.067 13.5837 397.09 1.38729C601.027 -15.6417 634.549 129.726 634.549 129.726C634.549 129.726 761.343 105.222 829.941 224.009C902.371 349.439 789.066 465.164 789.066 465.164ZM338.772 458.504C491.055 430.987 624.238 440.386 724.873 512.734C702.11 553.6 693.351 610.452 711.956 659.947C685.429 633.961 669.951 599.801 670.974 529.468C598.589 473.974 444.855 453.745 338.772 458.504ZM190.655 519.692C223.56 561.089 242.099 625.392 230.895 688.84C412.319 625.5 562.026 652.631 677.215 719.066C503.144 682.511 335.447 677.069 183.419 747.991C201.406 675.785 205.726 600.164 190.655 519.692ZM362.499 829.491C362.499 829.491 328.772 812.357 286.339 817.235C241.533 822.391 213.693 843.499 213.693 843.499C213.693 843.499 230.714 788.891 294.218 785.728C340.033 783.435 362.499 829.491 362.499 829.491ZM491.633 829.491C491.633 829.491 514.099 783.435 559.914 785.728C623.418 788.891 640.442 843.499 640.442 843.499C640.442 843.499 612.6 822.391 567.788 817.235C525.36 812.357 491.633 829.491 491.633 829.491ZM427.063 994.141C399.448 1026.81 345.28 1038.08 272.124 1034.02C197.764 1024.91 155.463 1000.28 178.187 944.196C163.116 1031.43 270.84 990.068 348.726 920.314C378.983 899.033 409.524 902.783 427.063 923.882C444.608 902.783 475.149 899.033 505.406 920.314C583.286 990.068 691.016 1031.43 675.945 944.196C698.672 1000.28 656.368 1024.91 582.008 1034.02C508.847 1038.08 454.687 1026.81 427.063 994.141Z" fill="white"/>
<path d="M143.018 424C134.085 422.667 128.285 418.6 125.618 411.8C122.951 404.867 123.485 396.133 127.218 385.6L153.618 310.6C156.018 303.667 158.751 297.733 161.818 292.8C165.018 287.867 168.951 284.067 173.618 281.4C178.418 278.733 184.351 277.4 191.418 277.4C202.085 277.4 210.085 280.333 215.418 286.2C220.885 292.067 225.418 300.2 229.018 310.6L255.218 385.6C258.951 396.133 259.618 404.867 257.218 411.8C254.951 418.6 249.285 422.667 240.218 424C232.885 424.933 226.485 424.067 221.018 421.4C215.685 418.733 212.485 414.4 211.418 408.4C210.618 404.4 210.485 401.067 211.018 398.4C211.685 395.733 212.285 393.6 212.818 392C213.218 390.667 213.218 389.4 212.818 388.2C212.551 386.867 211.551 386.2 209.818 386.2H172.618C170.885 386.2 169.818 386.867 169.418 388.2C169.151 389.4 169.285 390.667 169.818 392C170.351 393.6 170.885 395.733 171.418 398.4C171.951 401.067 171.885 404.4 171.218 408.4C170.151 414.4 167.018 418.733 161.818 421.4C156.618 424.067 150.351 424.933 143.018 424ZM206.018 358.2L195.618 325.6C195.351 324.267 194.885 323.267 194.218 322.6C193.685 321.8 192.751 321.4 191.418 321.4C190.085 321.4 189.085 321.8 188.418 322.6C187.885 323.267 187.418 324.267 187.018 325.6L176.818 358.2H206.018Z" fill="white"/>
<path d="M268.862 296.2C268.862 290.467 270.595 285.867 274.062 282.4C277.662 278.8 282.595 277 288.862 277C295.528 277 300.462 278.733 303.662 282.2C306.995 285.667 308.662 290.267 308.662 296C308.662 301.6 306.995 306.133 303.662 309.6C300.462 312.933 295.528 314.6 288.862 314.6C282.328 314.6 277.328 312.933 273.862 309.6C270.528 306.133 268.862 301.667 268.862 296.2ZM288.862 424C282.595 424 277.928 422.267 274.862 418.8C271.795 415.333 270.262 411 270.262 405.8V337.4C270.262 331.667 271.795 327.133 274.862 323.8C277.928 320.467 282.595 318.8 288.862 318.8C295.128 318.8 299.795 320.467 302.862 323.8C306.062 327.133 307.662 331.533 307.662 337V405.8C307.662 411 305.995 415.333 302.662 418.8C299.462 422.267 294.862 424 288.862 424Z" fill="white"/>
<path d="M372.132 424.6C361.732 424.6 352.532 422.467 344.532 418.2C336.532 413.8 330.265 407.6 325.732 399.6C321.199 391.6 318.932 382.2 318.932 371.4C318.932 360.6 321.199 351.2 325.732 343.2C330.265 335.2 336.532 329 344.532 324.6C352.665 320.2 361.999 318 372.532 318C380.799 318 388.065 318.867 394.332 320.6C400.732 322.333 405.732 324.933 409.332 328.4C413.065 331.867 414.932 336.2 414.932 341.4C414.932 347.667 413.332 352.6 410.132 356.2C406.932 359.667 402.332 361.4 396.332 361.4C392.332 361.4 388.332 360.8 384.332 359.6C380.465 358.4 375.465 357.8 369.332 357.8C364.265 357.8 359.999 358.6 356.532 360.2C353.065 361.8 351.332 364.733 351.332 369C351.332 373.4 353.065 376.6 356.532 378.6C359.999 380.467 364.265 381.4 369.332 381.4C373.465 381.4 376.932 381 379.732 380.2C382.532 379.4 385.199 378.6 387.732 377.8C390.265 377 393.132 376.6 396.332 376.6C403.132 376.6 408.132 378.6 411.332 382.6C414.665 386.467 416.332 391.467 416.332 397.6C416.332 402.8 414.399 407.467 410.532 411.6C406.665 415.6 401.399 418.8 394.732 421.2C388.065 423.467 380.532 424.6 372.132 424.6Z" fill="white"/>
<path d="M447.248 424C441.381 424 436.714 422.267 433.248 418.8C429.914 415.2 428.248 410.8 428.248 405.6V289.8C428.248 284.2 429.914 279.467 433.248 275.6C436.714 271.733 441.581 269.8 447.848 269.8C453.981 269.8 458.581 271.733 461.648 275.6C464.848 279.467 466.448 284.267 466.448 290V349.8H470.048C470.048 342.2 471.381 336.2 474.048 331.8C476.848 327.4 480.381 324.267 484.648 322.4C489.048 320.4 493.514 319.4 498.048 319.4C506.048 319.4 512.114 321.4 516.248 325.4C520.514 329.267 523.381 334.467 524.848 341C526.448 347.533 527.248 354.667 527.248 362.4V405.6C527.248 411.067 525.448 415.533 521.848 419C518.381 422.333 513.714 424 507.848 424C501.848 424 497.114 422.333 493.648 419C490.181 415.533 488.448 411.067 488.448 405.6V370.2C488.448 365.4 487.514 361.667 485.648 359C483.781 356.333 481.048 355 477.448 355C473.848 355 471.114 356.467 469.248 359.4C467.381 362.333 466.448 366.067 466.448 370.6V405.6C466.448 410.8 464.714 415.2 461.248 418.8C457.914 422.267 453.248 424 447.248 424Z" fill="white"/>
<path d="M540.823 372C540.823 361.467 542.889 352.2 547.023 344.2C551.289 336.2 557.289 329.933 565.023 325.4C572.889 320.867 582.223 318.6 593.023 318.6C601.423 318.6 608.956 320.133 615.623 323.2C622.423 326.267 627.756 330.4 631.623 335.6C635.489 340.667 637.423 346.267 637.423 352.4C637.423 358.8 635.556 363.333 631.823 366C628.089 368.667 622.556 370 615.223 370H573.223C573.223 373.467 574.556 376.333 577.223 378.6C580.023 380.867 584.689 382 591.223 382C594.556 382 597.623 381.667 600.423 381C603.356 380.333 606.289 379.733 609.223 379.2C612.289 378.533 615.689 378.2 619.423 378.2C624.756 378.2 629.156 380.133 632.623 384C636.089 387.733 637.823 392.933 637.823 399.6C637.823 407.467 633.756 413.6 625.623 418C617.623 422.4 607.089 424.6 594.023 424.6C584.823 424.6 576.156 422.8 568.023 419.2C560.023 415.6 553.489 409.933 548.423 402.2C543.356 394.333 540.823 384.267 540.823 372ZM605.623 363.4C607.623 363.4 608.289 362.467 607.623 360.6C607.089 358.733 605.489 356.8 602.823 354.8C600.156 352.8 596.289 351.8 591.223 351.8C585.356 351.8 580.956 353.067 578.023 355.6C575.223 358.133 573.823 360.733 573.823 363.4H605.623Z" fill="white"/>
<path d="M683.696 424C678.096 424 673.496 422.267 669.896 418.8C666.429 415.2 664.696 410.733 664.696 405.4V360.8C661.229 361.6 658.096 361.133 655.296 359.4C652.496 357.667 650.229 355.067 648.496 351.6C646.896 348.133 646.096 344.333 646.096 340.2C646.096 336.067 646.963 332.267 648.696 328.8C650.429 325.2 652.696 322.467 655.496 320.6C658.429 318.733 661.629 318.333 665.096 319.4C665.763 309.533 667.363 300.8 669.896 293.2C672.429 285.467 676.296 279.4 681.496 275C686.829 270.6 693.763 268.4 702.296 268.4C709.629 268.4 715.496 269.933 719.896 273C724.296 275.933 727.363 279.6 729.096 284C730.963 288.4 731.563 292.867 730.896 297.4C730.229 301.8 728.429 305.667 725.496 309C722.563 312.2 718.229 313.8 712.496 313.8C708.496 313.8 705.163 313 702.496 311.4C699.829 309.8 697.563 307.867 695.696 305.6C693.963 303.2 692.429 300.933 691.096 298.8C687.763 293.467 684.363 291.667 680.896 293.4C679.163 294.333 678.229 295.867 678.096 298C677.963 300 678.629 302.333 680.096 305L684.496 312.6C686.763 316.333 689.163 318.8 691.696 320C694.229 321.067 697.429 321.333 701.296 320.8L710.896 319.4C717.029 318.467 722.029 320.133 725.896 324.4C729.763 328.667 731.696 333.933 731.696 340.2C731.696 346.733 729.696 352 725.696 356C721.829 359.867 717.029 361.467 711.296 360.8L702.896 359.8V405.4C702.896 410.733 701.163 415.2 697.696 418.8C694.229 422.267 689.563 424 683.696 424Z" fill="white"/>
</svg>
